<?xml version="1.0" encoding="UTF-8"?>
<!DOCTYPE svg PUBLIC "-//W3C//DTD SVG 1.1//EN" "http://www.w3.org/Graphics/SVG/1.1/DTD/svg11.dtd">
<!-- Creator: CorelDRAW 2017 -->
<svg xmlns="http://www.w3.org/2000/svg" xml:space="preserve" width="100mm" height="99.9861mm" version="1.1" style="shape-rendering:geometricPrecision; text-rendering:geometricPrecision; image-rendering:optimizeQuality; fill-rule:evenodd; clip-rule:evenodd"
viewBox="0 0 345.07 345.02"
 xmlns:xlink="http://www.w3.org/1999/xlink">
 <defs>
  <style type="text/css">
   <![CDATA[
    .str0 {stroke:#2B2A29;stroke-width:5.49;stroke-miterlimit:22.9256}
    .str3 {stroke:#2B2A29;stroke-width:0.23;stroke-miterlimit:22.9256}
    .str2 {stroke:#2B2A29;stroke-width:0.23;stroke-miterlimit:22.9256}
    .str1 {stroke:#E31E24;stroke-width:0.23;stroke-miterlimit:22.9256}
    .fil0 {fill:none}
    .fil3 {fill:#FEFEFE}
    .fil6 {fill:#2B2A29}
    .fil2 {fill:#FDEBD7}
    .fil4 {fill:#E31E24}
    .fil1 {fill:#FCEE5E}
    .fil5 {fill:#FDEBD7;fill-rule:nonzero}
    .fil7 {fill:#E31E24;fill-rule:nonzero}
   ]]>
  </style>
 </defs>
 <g id="Слой_x0020_1">
  <metadata id="CorelCorpID_0Corel-Layer"/>
  <g id="CorelCut.cdr">
   <rect class="fil0" x="1.13" y="-0" width="343.94" height="343.94"/>
   <g>
    <path class="fil0 str0" d="M92.23 343.53c-21.51,-33.23 178.35,3.26 183.81,-35.94 2.98,-21.4 -193.53,-57.73 -204.88,-81.54 -30.82,-64.65 241.16,-10.09 244.24,-51.02 3.27,-43.55 -252.19,-83.07 -300.8,-78.13"/>
    <path class="fil0 str1" d="M110.95 321.11c-4.97,-2.87 -10.01,-3.46 -11.25,-1.32 -1.24,2.14 1.79,6.21 6.77,9.08 4.97,2.87 10.01,3.46 11.25,1.32 1.24,-2.14 -1.79,-6.21 -6.77,-9.08z"/>
    <path class="fil1 str2" d="M87.29 272.64c-3.81,6.1 -5.42,8.91 -5.33,17.59 0.24,26.84 22.07,48.52 48.96,48.52 12.27,0 25.55,-2.24 32.08,-11.97l59.41 -96.89c12.16,1 19.84,-5.53 21.29,-12.19 2.34,-10.71 -7.58,-25.7 -22.71,-39.45 -23.87,-19.54 -54.58,-31.57 -73.19,-20.86 -5.28,3.04 -7.08,14.94 -0.77,25.97l-59.75 89.28z"/>
    <path class="fil2 str2" d="M277.13 161.64l-92.72 -57.09c-1.73,-4.04 -2.87,-14.78 0.11,-20.52 2.18,-4.21 6.2,-13.22 22.88,-15.5 22.35,-3.05 53.34,11.29 73.79,30.52 12.34,11.6 22.91,30.29 18.72,46.7 -2.49,9.74 -14.15,15.68 -22.77,15.88z"/>
    <path class="fil3 str3" d="M194.22 213.75c-6.05,-7.7 -13.52,-11.94 -22.43,-12.65l-37.4 57.57c6.35,1.4 13.85,5.92 22.43,13.36l37.4 -58.28z"/>
    <path class="fil0 str3" d="M87.29 272.64c17.09,-4.08 34.14,2.54 47.78,12.21"/>
    <path class="fil0 str3" d="M222.41 229.89c-1.48,-7.02 -4.93,-13.62 -10.77,-19.72"/>
    <path class="fil4 str2" d="M242.49 220.95c0.57,-1.06 0.98,-2.15 1.22,-3.25 2.34,-10.71 -7.58,-25.7 -22.71,-39.45 -23.87,-19.54 -54.58,-31.57 -73.19,-20.86 -0.85,0.49 -1.62,1.22 -2.27,2.13l48.16 -68.1c13.74,-17.4 45.37,-10.12 64.69,2.79 24.35,16.27 34.6,37.59 26.74,53.74l-42.64 73z"/>
    <path class="fil2 str2" d="M299.2 147.86l4.35 -9.1 1.89 -7.4c0.14,-18.83 -12.81,-34.63 -30.61,-49.39 -10.86,-9 -26,-17.84 -49.11,-20.43 -10.35,-1.16 -19.82,0.7 -26.26,4.04l-5.66 5.15 -4.9 6.47c3.25,-3.65 8.68,-7.32 18.49,-8.66 22.35,-3.05 53.34,11.29 73.79,30.52 12.34,11.6 22.91,30.29 18.72,46.7 -0.18,0.72 -0.42,1.42 -0.7,2.1z"/>
    <path class="fil2 str2" d="M299.54 109.51c-5.44,-9.81 -14.23,-18.85 -24.7,-27.53 -10.86,-9 -26,-17.84 -49.11,-20.43 -1.41,-0.16 -2.81,-0.26 -4.18,-0.31l6.18 -8.73c31.62,-19.64 80.17,13.85 76.66,48.45l-4.85 8.56z"/>
    <path class="fil4 str2" d="M304.57 97.84l1.81 -0.32 9.28 -16.05 0.61 -2.42c-1.65,-38.53 -43.68,-63.04 -75.04,-44.74l-1.86 1.73 -9.91 14.02 -0.19 1.53c30.66,-17.12 75.73,13.35 75.3,46.25z"/>
    <path class="fil5 str2" d="M316.12 76.19c-3.47,-36.53 -43.44,-59.33 -73.97,-42.4l16.85 -23.83 5.59 -5.18c27.67,-14.63 67.56,9.56 67,41.5l-2.23 7.25 -13.24 22.66z"/>
    <ellipse class="fil6" transform="matrix(-0.98576 -0.569129 -0.463246 0.802365 109.345 321.706)" rx="9.48" ry="4.4"/>
    <path class="fil3 str2" d="M114.05 323.25c-0.91,-0.75 -1.96,-1.48 -3.1,-2.14 -2.26,-1.31 -4.4,-2.12 -6.32,-2.44l-12.4 21.93 0 2.92 17 -7.81 4.82 -12.47z"/>
   </g>
   <path class="fil7" d="M215.28 25.19c-0.26,0.4 -5.53,4.52 -15.82,12.36 -3.58,2.75 -9.22,9.48 -13.3,16.58 -0.59,1.04 -1.13,1.88 -1.64,2.5 -0.68,0.89 -1.33,1.51 -1.94,1.87 -0.91,-0.21 -2.4,-0.33 -4.48,-0.36 -4.16,-0.04 -6.25,-2.13 -6.05,-6.68 0.09,-2.03 0.43,-3.48 0.99,-4.35 0.35,-0.53 3.81,-3.56 10.37,-9.07 7.16,-5.98 11.64,-9.9 13.43,-11.78 0.2,-0.16 3.37,-4.13 9.52,-11.91 3.65,-4.56 6.66,-6.83 9.03,-6.8 1.93,1.27 2.61,4.38 2.03,9.33 -0.52,4.14 -1.24,6.91 -2.16,8.3zm-43.47 53.68c-1.36,2.07 -6.59,2.68 -9.11,1.03 -3.07,-2.01 -4.99,-4.75 -5.77,-8.21l-0.9 -5.16c0.19,-0.9 6.72,-3.03 8.95,-4.71l6.4 4.19c1.47,6.77 1.61,11.06 0.43,12.86z"/>
   <path class="fil7" d="M190.63 11.52c-1.09,0.72 -2.63,3.05 -2.81,4.22 -2.82,0.26 -7.87,1.15 -15.14,2.66 -6.37,1.33 -9.98,1.93 -10.84,1.8 -2.4,-0.37 -5.69,0.09 -9.87,1.39 -1.55,6.43 -3.95,15.33 -7.18,26.69 0.24,-0.66 -0.05,1.68 -0.88,7.02 -3.09,20 -9.88,14.04 -10.83,13.89 -0.18,-0.03 -0.43,0.1 -0.75,0.37 -0.06,-1.12 -0.39,-3.44 -1.01,-6.97 -0.49,-2.85 -0.65,-4.76 -0.51,-5.71 0.31,-2.01 3.03,-4.91 3.69,-6.31 2.21,-4.76 6.24,-17.87 7.06,-23.16 0.34,-2.19 -1.29,-4.3 -3.39,-4.62 -2.2,-0.34 -6.79,3.05 -8.12,3.54 -3.21,1.18 -7.22,0.48 -9.8,0.92l-2.01 -2.74 0.54 -3.46c6.74,-4.01 13.21,-6.76 19.41,-8.26 5.22,-1.24 31.28,-6.98 34.16,-6.53 1.82,0.28 1.95,0.8 2.64,2.28 4.02,-0.21 8.18,0.29 12.48,1.51 0.9,0.79 1.96,1.28 3.18,1.46z"/>
   <path class="fil7" d="M112.62 46.63c0.22,1.36 -0.05,4.35 -0.82,8.97 -0.82,4.91 -1.76,8.9 -2.84,11.95 -0.18,0.79 1.45,3.49 1.99,4.48 -1.82,4.71 -3.75,7.23 -5.79,7.56 -2.68,0.44 -1.05,-1.08 -3.72,-0.64 -2.62,0.43 -9.68,6.46 -12.3,6.89 -11.66,1.92 -20.34,-1.39 -26.06,-9.92 -3.77,-5.69 -6.73,-15.11 -8.89,-28.26 -0.11,-0.68 -0.38,-3.72 -0.8,-9.12 -0.42,-5.41 -0.8,-9.12 -1.14,-11.16 0.81,-0.13 1.92,-1.17 3.32,-3.12 1.41,-0.23 5.07,1.12 5.54,1.94 0.38,1.19 1.23,2.84 2.55,4.94 2.42,3.86 3.44,6.08 4.08,9.98 1.01,6.15 0.24,15.57 1.89,21.68 0.79,3.12 3.02,6.65 6.68,10.59 3.51,-1.23 7.02,-3.17 10.53,-5.84 4.62,-3.5 7.89,-7.49 9.79,-11.98 2.59,-6 -0.06,-19.01 -1.54,-28 -0.8,-4.88 -1.24,-8.84 -1.33,-11.89 2.69,-0.44 5.13,0.15 7.33,1.79 0.86,0.97 1.75,3.94 2.7,8.88 1.44,7.33 2.35,11.75 2.74,13.26 0.54,1.97 5.65,4.28 6.09,7z"/>
   <path class="fil7" d="M71.25 91.17c0.19,2.16 0.08,5.25 -0.35,9.25 -2.01,1.64 -6.04,5.28 -12.1,10.9 -5.24,4.84 -8.23,7.47 -8.96,7.89 -1.87,1.08 -4.09,3.64 -6.07,4.79 -2.01,1.16 -2.27,-1.15 -4.28,0.02 -1.76,1.02 -7.15,6.61 -9.15,7.76 -9.4,5.45 -17.46,-2.32 -22.29,-10.66 -4.66,-8.05 -8.67,-20.38 -7.96,-29.36 0.18,-2.33 2.3,-7.18 6.33,-14.55 0.47,-0.78 1.59,-6.35 3.67,-8.87 2.71,-3.3 10.24,-8.95 14.2,-11.25 1.98,-1.15 4.12,-2.2 6.42,-3.17l2.25 0.05c6.44,3.25 10.2,5.81 11.27,7.68 1.45,2.5 1.3,6.49 -0.43,12 -1.74,5.52 -4.21,9.73 -7.27,10.88 -0.36,-0.63 -2.98,-2.95 -3.95,-4.62 1.18,-1.8 2.02,-4.19 2.51,-7.17 0.48,-2.82 0.44,-4.72 -0.14,-5.72 -1.79,-3.09 -4.84,-3.38 -9.16,-0.88 -1.86,1.08 -8.23,9.93 -10.42,12.7 -1.91,2.42 -1.02,9.75 -1.18,13.3 -0.61,6.81 -0.35,11.18 0.78,13.12 0.46,0.79 1.86,2.39 4.2,4.79 3.61,3.68 5.65,5.78 6.11,6.3 3.2,0.68 5.03,1 5.47,0.95 0.68,-0.02 2.1,-0.66 4.28,-1.93l14.04 -6.87c1.19,-0.69 3.75,-3.16 7.68,-7.43 3.93,-4.26 7.1,-8.02 9.51,-11.26l4.97 1.32z"/>
  </g>
 </g>
</svg>
